# xmcd
#
# Track frame offsets:
#	150
#	15123
#	29721
#	44169
#	58917
#	73440
#	89088
#	109086
#	123159
#	145032
#	160680
#	178353
#	193776
#	209949
#	227922
#	243945
#	259968
#	275766
#	290139
#	309162
#	325335
#	342858
#
# Disc length: 4761 seconds
#
# Revision: 2
# Processed by: cddbd v1.5.2PL0 Copyright (c) Steve Scherf et al.
# Submitted via: audiograbber 1.83.01
#
DISCID=67129716
DTITLE=Various Artist - CDX 530
DYEAR=2011
DGENRE=Country
TTITLE0=Miranda Lambert - Baggage cliam
TTITLE1=Blake Wise - Can't live without
TTITLE2=Eric Church - Drink in my hand
TTITLE3=Randy Travis - Everything and all
TTITLE4=Bomshel - Halleluy all
TTITLE5=Casye James - Let's don't call it a night
TTITLE6=Vince Gill - Threaten me with heaven
TTITLE7=Lady Antebellum - We owned the night
TTITLE8=Randy Owen - In honor of (those serving us) 
TTITLE9=Kevin Fowler - That girl
TTITLE10=Eddie Money - One more soldier coming home
TTITLE11=Glenn Kearney - Broken heart
TTITLE12=West Butler - Exit 28
TTITLE13=Mark Wayne Glasmire - Going home
TTITLE14=Patrick Davis - Lucky
TTITLE15=Wayne Millis Band - She knows the words
TTITLE16=JD Malone and the Experts - Silver from (you still want more)
TTITLE17=Roy Solis - Tailgate party
TTITLE18=Brian Milson - The man I'm not
TTITLE19=Jackie Arredondo - The woman you wanna be
TTITLE20=River City Gang - This old town
TTITLE21=Tim Foust - You're so yesterday
EXTD=
EXTT0=
EXTT1=
EXTT2=
EXTT3=
EXTT4=
EXTT5=
EXTT6=
EXTT7=
EXTT8=
EXTT9=
EXTT10=
EXTT11=
EXTT12=
EXTT13=
EXTT14=
EXTT15=
EXTT16=
EXTT17=
EXTT18=
EXTT19=
EXTT20=
EXTT21=
PLAYORDER=
